<?xml version="1.0" standalone="no"?>
<!DOCTYPE svg PUBLIC "-//W3C//DTD SVG 20010904//EN"
 "http://www.w3.org/TR/2001/REC-SVG-20010904/DTD/svg10.dtd">
<svg version="1.0" xmlns="http://www.w3.org/2000/svg"
 width="32.000000pt" height="32.000000pt" viewBox="0 0 32.000000 32.000000"
 preserveAspectRatio="xMidYMid meet">

<g transform="translate(0.000000,32.000000) scale(0.100000,-0.100000)"
fill="#000000" stroke="none">
<path d="M90 160 c0 -22 5 -40 10 -40 6 0 10 8 10 18 1 16 1 16 11 0 17 -30
29 -20 29 22 0 22 -4 40 -10 40 -5 0 -10 -8 -10 -17 -1 -17 -1 -17 -11 0 -17
29 -29 19 -29 -23z"/>
<path d="M160 160 c0 -36 3 -40 25 -40 29 0 34 16 8 23 -17 4 -17 5 0 6 9 0
17 5 17 10 0 5 -8 12 -17 14 -17 4 -17 5 0 6 27 2 20 21 -8 21 -22 0 -25 -4
-25 -40z"/>
<path d="M220 190 c0 -5 5 -10 10 -10 6 0 10 -13 10 -30 0 -16 5 -30 10 -30 6
0 10 14 10 30 0 17 5 30 10 30 6 0 10 5 10 10 0 6 -13 10 -30 10 -16 0 -30 -4
-30 -10z"/>
<path d="M44 149 c-10 -17 13 -36 27 -22 12 12 4 33 -11 33 -5 0 -12 -5 -16
-11z"/>
</g>
</svg>
