<?xml version="1.0" standalone="no"?>
<!DOCTYPE svg PUBLIC "-//W3C//DTD SVG 20010904//EN"
 "http://www.w3.org/TR/2001/REC-SVG-20010904/DTD/svg10.dtd">
<svg version="1.0" xmlns="http://www.w3.org/2000/svg"
 width="512.000000pt" height="512.000000pt" viewBox="0 0 512.000000 512.000000"
 preserveAspectRatio="xMidYMid meet">

<g transform="translate(0.000000,512.000000) scale(0.100000,-0.100000)"
fill="#000000" stroke="none">
<path d="M1663 4747 c-491 -205 -893 -374 -892 -377 0 -11 1771 -1035 1789
-1035 18 0 1789 1024 1789 1035 1 4 -1731 728 -1779 744 -8 3 -417 -162 -907
-367z"/>
<path d="M600 3140 l0 -970 900 -675 c495 -371 902 -675 905 -675 3 0 4 505 3
1122 l-3 1123 -895 522 c-492 287 -898 523 -902 523 -5 0 -8 -436 -8 -970z
m1070 4 l440 -256 0 -544 c0 -299 -3 -544 -7 -544 -3 0 -208 151 -455 336
l-448 336 0 470 c0 418 2 469 15 464 9 -3 214 -121 455 -262z"/>
<path d="M1510 2752 l1 -137 141 -105 c77 -58 145 -107 150 -108 5 -2 7 67 6
154 l-3 159 -60 36 c-33 19 -99 59 -147 87 l-88 52 0 -138z"/>
<path d="M3610 3587 l-895 -522 -3 -1123 c-1 -617 0 -1122 3 -1122 3 0 410
304 905 675 l900 675 0 970 c0 534 -3 970 -7 970 -5 0 -411 -236 -903 -523z
m310 -646 l0 -469 -448 -336 c-247 -185 -452 -336 -455 -336 -4 0 -7 245 -7
544 l0 544 448 261 c246 143 450 261 455 261 4 0 7 -211 7 -469z"/>
<path d="M3485 2817 c-67 -40 -133 -80 -148 -90 l-27 -17 0 -156 c0 -86 4
-154 9 -152 4 2 72 50 149 108 l141 105 1 138 c0 75 -1 137 -2 136 -2 0 -57
-33 -123 -72z"/>
<path d="M1213 1239 c11 -168 49 -304 131 -474 312 -642 1058 -929 1725 -664
404 160 721 538 816 974 9 39 18 112 22 164 5 79 4 93 -8 86 -8 -5 -310 -231
-671 -502 -362 -271 -662 -493 -668 -493 -6 0 -306 222 -668 493 -361 271
-663 497 -671 502 -12 7 -13 -7 -8 -86z"/>
</g>
</svg>
